<svg xmlns="http://www.w3.org/2000/svg" version="1.1" xmlns:xlink="http://www.w3.org/1999/xlink" xmlns:svgjs="http://svgjs.dev/svgjs" width="1500" height="1518" viewBox="0 0 1500 1518"><g transform="matrix(1,0,0,1,-1.738240371602501,-2.4483870967742405)"><svg viewBox="0 0 245 248" data-background-color="#ffffff" preserveAspectRatio="xMidYMid meet" height="1518" width="1500" xmlns="http://www.w3.org/2000/svg" xmlns:xlink="http://www.w3.org/1999/xlink"><g id="tight-bounds" transform="matrix(1,0,0,1,0.2847274059716369,0.4000000000000057)"><svg viewBox="0 0 244.43135999999996 247.2" height="247.2" width="244.43135999999996"><g><svg></svg></g><g><svg viewBox="0 0 244.43135999999996 247.2" height="247.2" width="244.43135999999996"><g transform="matrix(1,0,0,1,0,86.37578728702967)"><svg viewBox="0 0 244.43135999999996 74.44842542594066" height="74.44842542594066" width="244.43135999999996"><g><svg viewBox="0 0 244.43135999999996 74.44842542594066" height="74.44842542594066" width="244.43135999999996"><g><svg viewBox="0 0 244.43135999999996 74.44842542594066" height="74.44842542594066" width="244.43135999999996"><g id="textblocktransform"><svg viewBox="0 0 244.43135999999996 74.44842542594066" height="74.44842542594066" width="244.43135999999996" id="textblock"><g><svg viewBox="0 0 244.43135999999996 74.44842542594066" height="74.44842542594066" width="244.43135999999996"><g transform="matrix(1,0,0,1,0,0)"><svg width="244.43135999999996" viewBox="0.8189516969604074 -16.361680930812852 158.39706830303962 48.24425093081285" height="74.44842542594066" data-palette-color="#727ae8"><path d="M14.896 18.404c1.765 0.755 3.183 1.675 4.253 2.759 1.076 1.087 1.981 2.409 2.714 3.967v0l-5.686 3.061c-0.627-2.365-1.541-4.318-2.742-5.858-1.198-1.547-2.986-2.804-5.363-3.773v0c-3.649-1.487-5.933-4.088-6.852-7.803-0.923-3.724-0.255-8.357 2.005-13.901v0c2.287-5.612 5.074-9.44 8.362-11.483 3.294-2.041 6.858-2.281 10.692-0.719v0c3.834 1.562 6.225 4.2 7.174 7.913 0.943 3.71 0.258 8.402-2.054 14.076v0c-1.603 3.933-3.443 6.771-5.522 8.516-2.076 1.738-4.403 2.82-6.981 3.245zM9.596-0.548c-1.847 4.531-2.678 7.932-2.495 10.203 0.181 2.277 1.222 3.802 3.124 4.578v0c1.963 0.8 3.795 0.456 5.496-1.033 1.695-1.491 3.479-4.536 5.353-9.135v0c1.847-4.531 2.691-7.938 2.534-10.219-0.163-2.284-1.227-3.826-3.19-4.626v0c-1.932-0.787-3.755-0.422-5.468 1.097-1.707 1.522-3.492 4.567-5.354 9.135zM51.679 2.961l-6.433 26.387-5.344-1.302 0.514-3.416c-1.161 1.158-2.34 1.955-3.537 2.39-1.196 0.429-2.477 0.477-3.843 0.144v0c-1.93-0.471-3.286-1.525-4.067-3.163-0.782-1.632-0.906-3.546-0.37-5.741v0l4.815-19.752 6.14 1.497-4.73 19.402c-0.502 2.06-0.054 3.26 1.345 3.601v0c0.797 0.194 1.584 0.06 2.363-0.402 0.783-0.454 1.579-1.183 2.386-2.187v0l4.621-18.955zM56.014 3.348l6.259 0.806-3.467 26.937-6.258-0.805zM60.849-9.701c1.117 0.144 1.981 0.618 2.59 1.422 0.602 0.803 0.832 1.764 0.688 2.881v0c-0.14 1.091-0.603 1.946-1.389 2.564-0.793 0.624-1.748 0.864-2.865 0.72v0c-1.124-0.145-1.987-0.619-2.59-1.422-0.603-0.797-0.835-1.741-0.694-2.832v0c0.144-1.117 0.609-1.989 1.395-2.613 0.786-0.625 1.741-0.865 2.866-0.72zM65.411 4.301l16.684 0.441-0.121 4.568-11.292 17.318 11.027 0.291-0.692 4.964-17.244-0.456 0.121-4.569 11.291-17.317-9.906-0.262zM105.66-6.042l3.528 35.304-8.279 0.827-11.825-28.023c0.517 2.421 0.954 4.655 1.313 6.703 0.359 2.048 0.679 4.485 0.962 7.31v0l1.48 14.816-5.721 0.572-3.528-35.304 8.229-0.822 11.825 28.023c-0.322-1.207-0.691-2.926-1.108-5.156-0.41-2.224-0.731-4.496-0.963-6.818v0l-1.684-16.856zM132.175 8.557c0.079 0.296 0.257 1.153 0.532 2.57v0l-13.543 3.624c0.861 2.675 1.84 4.439 2.937 5.291 1.093 0.86 2.383 1.091 3.871 0.693v0c1.03-0.276 1.911-0.698 2.643-1.267 0.733-0.562 1.477-1.355 2.231-2.377v0l3.461 2.8c-1.71 2.866-4.185 4.733-7.424 5.6v0c-3.439 0.92-6.395 0.435-8.868-1.457-2.471-1.885-4.287-4.995-5.447-9.329v0c-1.16-4.334-1.2-7.991-0.121-10.972 1.079-2.98 3.223-4.9 6.43-5.758v0c3.072-0.822 5.766-0.349 8.081 1.419 2.318 1.774 4.056 4.829 5.217 9.163zM125.839 8.71l-0.093-0.348c-0.664-2.479-1.444-4.21-2.342-5.191-0.906-0.986-2.019-1.302-3.339-0.949v0c-1.224 0.327-2.009 1.131-2.356 2.412-0.348 1.28-0.217 3.329 0.392 6.147v0zM147.493-12.138l-0.77 14.08 12.493 10.444-6.136 2.639-8.475-8.264 0.271 11.792-5.999 2.58 1.091-16.068-11.16-9.167 6.045-2.599 7.169 7.203-0.381-10.123z" opacity="1" transform="matrix(1,0,0,1,0,0)" fill="#727ae8" class="wordmark-text-0" data-fill-palette-color="primary" id="text-0"></path></svg></g></svg></g></svg></g></svg></g><g></g></svg></g></svg></g><path d="M0 80.376L0 1 244.431 1 244.431 80.376 233.608 80.376 233.608 11.823 10.823 11.823 10.823 80.376 0 80.376M0 166.824L0 246.2 244.431 246.2 244.431 166.824 233.608 166.824 233.608 235.377 10.823 235.377 10.823 166.824 0 166.824" fill="#c7d4ff" stroke="transparent" data-fill-palette-color="tertiary"></path></svg></g><defs></defs></svg><rect width="244.43135999999996" height="247.2" fill="none" stroke="none" visibility="hidden"></rect></g></svg></g></svg>