<svg xmlns="http://www.w3.org/2000/svg" version="1.1" xmlns:xlink="http://www.w3.org/1999/xlink" xmlns:svgjs="http://svgjs.dev/svgjs" width="2000" height="1252" viewBox="0 0 2000 1252"><g transform="matrix(1,0,0,1,-1.2121212121212466,-2.01935483870966)"><svg viewBox="0 0 396 248" data-background-color="#ffffff" preserveAspectRatio="xMidYMid meet" height="1252" width="2000" xmlns="http://www.w3.org/2000/svg" xmlns:xlink="http://www.w3.org/1999/xlink"><g id="tight-bounds" transform="matrix(1,0,0,1,0.2400000000000091,0.4000000000000057)"><svg viewBox="0 0 395.52 247.2" height="247.2" width="395.52"><g><svg></svg></g><g><svg viewBox="0 0 395.52 247.2" height="247.2" width="395.52"><g transform="matrix(1,0,0,1,75.54432000000001,95.46881458747993)"><svg viewBox="0 0 244.43135999999996 56.26237082504012" height="56.26237082504012" width="244.43135999999996"><g><svg viewBox="0 0 244.43135999999996 56.26237082504012" height="56.26237082504012" width="244.43135999999996"><g><svg viewBox="0 0 244.43135999999996 56.26237082504012" height="56.26237082504012" width="244.43135999999996"><g><svg viewBox="0 0 244.43135999999996 56.26237082504012" height="56.26237082504012" width="244.43135999999996"><g id="textblocktransform"><svg viewBox="0 0 244.43135999999996 56.26237082504012" height="56.26237082504012" width="244.43135999999996" id="textblock"><g><svg viewBox="0 0 244.43135999999996 56.26237082504012" height="56.26237082504012" width="244.43135999999996"><g transform="matrix(1,0,0,1,0,0)"><svg width="244.43135999999996" viewBox="0.49 -35.01 152.09 35.01" height="56.26237082504012" data-palette-color="#4f46e5"><path d="M17.99-35.01L17.99-13.99Q17.99-11.08 16.89-8.53 15.8-5.98 13.9-4.09 12.01-2.2 9.46-1.1 6.91 0 4 0L4 0Q2.25 0 0.49-0.44L0.49-0.44 0.49-7.96Q1.27-7.5 2.17-7.25 3.08-7.01 4-7.01L4-7.01Q5.44-7.01 6.73-7.56 8.01-8.11 8.96-9.06 9.91-10.01 10.46-11.28 11.01-12.55 11.01-13.99L11.01-13.99 11.01-35.01 17.99-35.01ZM31.1-35.01L31.1 0 24.09 0 24.09-35.01 31.1-35.01ZM52.34-35.01L52.34-13.99Q52.34-11.08 51.24-8.53 50.14-5.98 48.25-4.09 46.36-2.2 43.81-1.1 41.25 0 38.35 0L38.35 0Q36.59 0 34.83-0.44L34.83-0.44 34.83-7.96Q35.62-7.5 36.52-7.25 37.42-7.01 38.35-7.01L38.35-7.01Q39.79-7.01 41.07-7.56 42.35-8.11 43.31-9.06 44.26-10.01 44.81-11.28 45.36-12.55 45.36-13.99L45.36-13.99 45.36-35.01 52.34-35.01ZM86.44-35.01L86.44 0 78.95 0 65.45-23.05 65.45 0 58.44 0 58.44-35.01 65.93-35.01 79.44-11.94 79.44-35.01 86.44-35.01ZM99.53-13.99L113.54-13.99 113.54-21Q113.54-22.44 112.99-23.72 112.44-25 111.49-25.95 110.54-26.9 109.26-27.45 107.97-28 106.53-28L106.53-28Q105.09-28 103.81-27.45 102.53-26.9 101.58-25.95 100.62-25 100.08-23.72 99.53-22.44 99.53-21L99.53-21 99.53-13.99ZM120.55-21L120.55 0 113.54 0 113.54-7.01 99.53-7.01 99.53 0 92.54 0 92.54-21Q92.54-23.9 93.64-26.45 94.74-29 96.63-30.91 98.53-32.81 101.08-33.91 103.63-35.01 106.53-35.01L106.53-35.01Q109.44-35.01 111.99-33.91 114.54-32.81 116.45-30.91 118.35-29 119.45-26.45 120.55-23.9 120.55-21L120.55-21ZM124.57-24.51L124.57-24.51Q124.57-26.68 125.4-28.59 126.23-30.49 127.66-31.92 129.09-33.35 130.99-34.18 132.9-35.01 135.07-35.01L135.07-35.01 151.13-35.01 151.13-28 135.07-28Q134.34-28 133.7-27.73 133.07-27.47 132.59-26.99 132.12-26.51 131.85-25.88 131.58-25.24 131.58-24.51L131.58-24.51Q131.58-23.78 131.85-23.13 132.12-22.49 132.59-22.01 133.07-21.53 133.7-21.26 134.34-21 135.07-21L135.07-21 142.08-21Q144.25-21 146.17-20.18 148.08-19.36 149.51-17.93 150.94-16.5 151.76-14.59 152.58-12.67 152.58-10.5L152.58-10.5Q152.58-8.33 151.76-6.42 150.94-4.52 149.51-3.09 148.08-1.66 146.17-0.83 144.25 0 142.08 0L142.08 0 126.53 0 126.53-7.01 142.08-7.01Q142.81-7.01 143.44-7.28 144.08-7.54 144.56-8.02 145.03-8.5 145.3-9.13 145.57-9.77 145.57-10.5L145.57-10.5Q145.57-11.23 145.3-11.87 145.03-12.5 144.56-12.98 144.08-13.45 143.44-13.72 142.81-13.99 142.08-13.99L142.08-13.99 135.07-13.99Q132.9-13.99 130.99-14.82 129.09-15.65 127.66-17.08 126.23-18.51 125.4-20.42 124.57-22.34 124.57-24.51Z" opacity="1" transform="matrix(1,0,0,1,0,0)" fill="#4f46e5" class="wordmark-text-0" data-fill-palette-color="primary" id="text-0"></path></svg></g></svg></g></svg></g></svg></g></svg></g></svg></g></svg></g><path d="M195.827 89.469L195.827 30.072 8.771 30.072 8.771 217.128 195.827 217.128 195.827 157.731 190.753 157.731 190.753 212.054 13.845 212.054 13.845 35.146 190.753 35.146 190.753 89.469Z" fill="#2a2c35" stroke="transparent" data-fill-palette-color="tertiary"></path></svg></g><defs></defs></svg><rect width="395.52" height="247.2" fill="none" stroke="none" visibility="hidden"></rect></g></svg></g></svg>